<svg width="273" height="24" viewBox="0 0 273 24" fill="none" xmlns="http://www.w3.org/2000/svg">
<g clip-path="url(#clip0_1_547)">
<path d="M159.667 12.3589C160.759 12.3589 161.645 11.4733 161.645 10.3809C161.645 9.28841 160.759 8.40283 159.667 8.40283C158.574 8.40283 157.689 9.28841 157.689 10.3809C157.689 11.4733 158.574 12.3589 159.667 12.3589Z" fill="#333333"/>
<path d="M163.5 0C157.152 0 152 5.152 152 11.5C152 17.848 157.152 23 163.5 23C169.848 23 175 17.848 175 11.5C175 5.152 169.848 0 163.5 0ZM155.603 10.396C155.603 8.15734 157.428 6.33267 159.667 6.33267C161.905 6.33267 163.73 8.15734 163.73 10.396C163.73 12.6347 161.905 14.4593 159.667 14.4593C157.428 14.4593 155.603 12.6347 155.603 10.396ZM164.021 18.5993C162.749 18.5993 161.522 18.2467 160.449 17.572L161.507 15.87C162.258 16.3453 163.132 16.5907 164.021 16.5907C164.911 16.5907 165.785 16.3453 166.521 15.87L167.579 17.572C166.521 18.2467 165.279 18.5993 164.021 18.5993ZM165.693 11.3927V9.384H171.857V11.3927H165.693Z" fill="#333333"/>
</g>
<rect x="180.188" y="21.0469" width="92" height="1" fill="#202020"/>
<path d="M184.472 15V4.33594H187.753C188.69 4.33594 189.528 4.54834 190.265 4.97314C191.007 5.39307 191.586 5.99365 192.001 6.7749C192.416 7.55127 192.624 8.43506 192.624 9.42627V9.91699C192.624 10.9082 192.418 11.7896 192.008 12.561C191.603 13.3325 191.029 13.9307 190.287 14.3555C189.545 14.7803 188.708 14.9951 187.775 15H184.472ZM186.669 6.11572V13.2349H187.731C188.59 13.2349 189.247 12.9541 189.701 12.3926C190.155 11.8311 190.387 11.0278 190.397 9.98291V9.41895C190.397 8.33496 190.172 7.51465 189.723 6.95801C189.274 6.39648 188.617 6.11572 187.753 6.11572H186.669ZM197.736 15.1465C196.574 15.1465 195.626 14.79 194.894 14.0771C194.167 13.3643 193.803 12.4146 193.803 11.228V11.0229C193.803 10.2271 193.957 9.5166 194.264 8.8916C194.572 8.26172 195.006 7.77832 195.568 7.44141C196.134 7.09961 196.779 6.92871 197.501 6.92871C198.585 6.92871 199.438 7.27051 200.058 7.9541C200.683 8.6377 200.995 9.60693 200.995 10.8618V11.7261H195.949C196.017 12.2437 196.222 12.6587 196.564 12.9712C196.911 13.2837 197.348 13.4399 197.875 13.4399C198.69 13.4399 199.328 13.1445 199.787 12.5537L200.827 13.7183C200.509 14.1675 200.08 14.519 199.538 14.7729C198.996 15.022 198.395 15.1465 197.736 15.1465ZM197.494 8.64258C197.074 8.64258 196.732 8.78418 196.469 9.06738C196.21 9.35059 196.044 9.75586 195.971 10.2832H198.915V10.1147C198.905 9.646 198.778 9.28467 198.534 9.03076C198.29 8.77197 197.943 8.64258 197.494 8.64258ZM206.496 12.8101C206.496 12.5513 206.366 12.3486 206.107 12.2021C205.854 12.0508 205.443 11.9165 204.877 11.7993C202.992 11.4038 202.05 10.603 202.05 9.39697C202.05 8.69385 202.34 8.10791 202.921 7.63916C203.507 7.16553 204.271 6.92871 205.214 6.92871C206.22 6.92871 207.023 7.16553 207.624 7.63916C208.229 8.11279 208.532 8.72803 208.532 9.48486H206.415C206.415 9.18213 206.317 8.93311 206.122 8.73779C205.927 8.5376 205.622 8.4375 205.207 8.4375C204.85 8.4375 204.574 8.51807 204.379 8.6792C204.184 8.84033 204.086 9.04541 204.086 9.29443C204.086 9.52881 204.196 9.71924 204.416 9.86572C204.64 10.0073 205.016 10.1318 205.543 10.2393C206.071 10.3418 206.515 10.459 206.876 10.5908C207.995 11.001 208.554 11.7114 208.554 12.7222C208.554 13.4448 208.244 14.0308 207.624 14.48C207.003 14.9243 206.203 15.1465 205.221 15.1465C204.557 15.1465 203.966 15.0293 203.449 14.7949C202.936 14.5557 202.533 14.231 202.24 13.8208C201.947 13.4058 201.801 12.959 201.801 12.4805H203.808C203.827 12.8564 203.966 13.1445 204.225 13.3447C204.484 13.5449 204.831 13.645 205.265 13.645C205.67 13.645 205.976 13.5693 206.181 13.418C206.391 13.2617 206.496 13.0591 206.496 12.8101ZM212.157 15H210.033V7.0752H212.157V15ZM209.909 5.02441C209.909 4.70703 210.014 4.4458 210.224 4.24072C210.438 4.03564 210.729 3.93311 211.095 3.93311C211.457 3.93311 211.745 4.03564 211.959 4.24072C212.174 4.4458 212.282 4.70703 212.282 5.02441C212.282 5.34668 212.172 5.61035 211.952 5.81543C211.737 6.02051 211.452 6.12305 211.095 6.12305C210.739 6.12305 210.451 6.02051 210.231 5.81543C210.016 5.61035 209.909 5.34668 209.909 5.02441ZM213.6 10.979C213.6 9.76318 213.888 8.78418 214.464 8.04199C215.045 7.2998 215.827 6.92871 216.808 6.92871C217.677 6.92871 218.354 7.22656 218.837 7.82227L218.925 7.0752H220.844V14.7363C220.844 15.4297 220.685 16.0327 220.368 16.5454C220.055 17.0581 219.613 17.4487 219.042 17.7173C218.471 17.9858 217.802 18.1201 217.035 18.1201C216.454 18.1201 215.888 18.0029 215.336 17.7686C214.784 17.5391 214.367 17.2412 214.083 16.875L215.021 15.5859C215.548 16.1768 216.188 16.4722 216.94 16.4722C217.501 16.4722 217.938 16.3208 218.251 16.0181C218.563 15.7202 218.72 15.2954 218.72 14.7437V14.3188C218.231 14.8706 217.589 15.1465 216.793 15.1465C215.841 15.1465 215.07 14.7754 214.479 14.0332C213.893 13.2861 213.6 12.2974 213.6 11.0669V10.979ZM215.717 11.1328C215.717 11.8506 215.861 12.4146 216.149 12.8247C216.437 13.23 216.833 13.4326 217.335 13.4326C217.98 13.4326 218.441 13.1909 218.72 12.7075V9.375C218.437 8.8916 217.98 8.6499 217.35 8.6499C216.842 8.6499 216.442 8.85742 216.149 9.27246C215.861 9.6875 215.717 10.3076 215.717 11.1328ZM224.425 7.0752L224.491 7.99072C225.058 7.28271 225.817 6.92871 226.769 6.92871C227.609 6.92871 228.234 7.17529 228.644 7.66846C229.054 8.16162 229.264 8.89893 229.274 9.88037V15H227.157V9.93164C227.157 9.48242 227.06 9.15771 226.864 8.95752C226.669 8.75244 226.344 8.6499 225.89 8.6499C225.294 8.6499 224.848 8.90381 224.55 9.41162V15H222.433V7.0752H224.425ZM232.87 7.0752L232.936 7.96143C233.498 7.27295 234.257 6.92871 235.214 6.92871C236.234 6.92871 236.935 7.33154 237.316 8.13721C237.873 7.33154 238.666 6.92871 239.696 6.92871C240.556 6.92871 241.195 7.18018 241.615 7.68311C242.035 8.18115 242.245 8.93311 242.245 9.93896V15H240.121V9.94629C240.121 9.49707 240.033 9.16992 239.857 8.96484C239.682 8.75488 239.372 8.6499 238.927 8.6499C238.292 8.6499 237.853 8.95264 237.609 9.55811L237.616 15H235.5V9.95361C235.5 9.49463 235.409 9.1626 235.229 8.95752C235.048 8.75244 234.74 8.6499 234.306 8.6499C233.705 8.6499 233.271 8.89893 233.002 9.39697V15H230.885V7.0752H232.87ZM243.549 10.9644C243.549 10.1782 243.7 9.47754 244.003 8.8623C244.306 8.24707 244.74 7.771 245.307 7.43408C245.878 7.09717 246.54 6.92871 247.292 6.92871C248.361 6.92871 249.232 7.25586 249.906 7.91016C250.585 8.56445 250.963 9.45312 251.042 10.5762L251.056 11.1182C251.056 12.334 250.717 13.3105 250.038 14.0479C249.359 14.7803 248.449 15.1465 247.306 15.1465C246.164 15.1465 245.25 14.7803 244.567 14.0479C243.888 13.3154 243.549 12.3193 243.549 11.0596V10.9644ZM245.666 11.1182C245.666 11.8701 245.807 12.4463 246.09 12.8467C246.374 13.2422 246.779 13.4399 247.306 13.4399C247.819 13.4399 248.219 13.2446 248.507 12.854C248.795 12.4585 248.939 11.8286 248.939 10.9644C248.939 10.2271 248.795 9.65576 248.507 9.25049C248.219 8.84521 247.814 8.64258 247.292 8.64258C246.774 8.64258 246.374 8.84521 246.09 9.25049C245.807 9.65088 245.666 10.2734 245.666 11.1182ZM252.03 10.979C252.03 9.74365 252.306 8.75977 252.858 8.02734C253.415 7.29492 254.174 6.92871 255.136 6.92871C255.907 6.92871 256.544 7.2168 257.047 7.79297V3.75H259.171V15H257.26L257.157 14.1577C256.63 14.8169 255.951 15.1465 255.121 15.1465C254.188 15.1465 253.439 14.7803 252.873 14.0479C252.311 13.3105 252.03 12.2876 252.03 10.979ZM254.147 11.1328C254.147 11.875 254.276 12.4438 254.535 12.8394C254.794 13.2349 255.17 13.4326 255.663 13.4326C256.317 13.4326 256.779 13.1567 257.047 12.605V9.47754C256.784 8.92578 256.327 8.6499 255.678 8.6499C254.657 8.6499 254.147 9.47754 254.147 11.1328ZM260.482 10.9644C260.482 10.1782 260.634 9.47754 260.937 8.8623C261.239 8.24707 261.674 7.771 262.24 7.43408C262.812 7.09717 263.473 6.92871 264.225 6.92871C265.294 6.92871 266.166 7.25586 266.84 7.91016C267.519 8.56445 267.897 9.45312 267.975 10.5762L267.99 11.1182C267.99 12.334 267.65 13.3105 266.972 14.0479C266.293 14.7803 265.382 15.1465 264.24 15.1465C263.097 15.1465 262.184 14.7803 261.5 14.0479C260.822 13.3154 260.482 12.3193 260.482 11.0596V10.9644ZM262.599 11.1182C262.599 11.8701 262.741 12.4463 263.024 12.8467C263.307 13.2422 263.712 13.4399 264.24 13.4399C264.752 13.4399 265.153 13.2446 265.441 12.854C265.729 12.4585 265.873 11.8286 265.873 10.9644C265.873 10.2271 265.729 9.65576 265.441 9.25049C265.153 8.84521 264.748 8.64258 264.225 8.64258C263.708 8.64258 263.307 8.84521 263.024 9.25049C262.741 9.65088 262.599 10.2734 262.599 11.1182Z" fill="#202020"/>
<path d="M9.91846 4.33594L12.6577 12.0703L15.3823 4.33594H18.2681V15H16.0635V12.085L16.2832 7.05322L13.4048 15H11.896L9.0249 7.06055L9.24463 12.085V15H7.04736V4.33594H9.91846ZM24.6401 15C24.5425 14.8096 24.4717 14.5728 24.4277 14.2896C23.915 14.8608 23.2485 15.1465 22.4282 15.1465C21.6519 15.1465 21.0073 14.9219 20.4946 14.4727C19.9868 14.0234 19.7329 13.457 19.7329 12.7734C19.7329 11.9336 20.043 11.2891 20.6631 10.8398C21.2881 10.3906 22.189 10.1636 23.3657 10.1587H24.3398V9.70459C24.3398 9.33838 24.2446 9.04541 24.0542 8.82568C23.8687 8.60596 23.5732 8.49609 23.168 8.49609C22.8115 8.49609 22.5308 8.58154 22.3257 8.75244C22.1255 8.92334 22.0254 9.15771 22.0254 9.45557H19.9087C19.9087 8.99658 20.0503 8.57178 20.3335 8.18115C20.6167 7.79053 21.0171 7.48535 21.5347 7.26562C22.0522 7.04102 22.6333 6.92871 23.2778 6.92871C24.2544 6.92871 25.0283 7.17529 25.5996 7.66846C26.1758 8.15674 26.4639 8.84521 26.4639 9.73389V13.1689C26.4688 13.9209 26.5737 14.4897 26.7788 14.8755V15H24.6401ZM22.8896 13.5278C23.2021 13.5278 23.4902 13.4595 23.7539 13.3228C24.0176 13.1812 24.2129 12.9932 24.3398 12.7588V11.3965H23.5488C22.4893 11.3965 21.9253 11.7627 21.8569 12.4951L21.8496 12.6196C21.8496 12.8833 21.9424 13.1006 22.1279 13.2715C22.3135 13.4424 22.5674 13.5278 22.8896 13.5278ZM27.7603 10.979C27.7603 9.74365 28.0361 8.75977 28.5879 8.02734C29.1445 7.29492 29.9038 6.92871 30.8657 6.92871C31.6372 6.92871 32.2744 7.2168 32.7773 7.79297V3.75H34.9014V15H32.9897L32.8872 14.1577C32.3599 14.8169 31.6812 15.1465 30.8511 15.1465C29.9185 15.1465 29.1689 14.7803 28.6025 14.0479C28.041 13.3105 27.7603 12.2876 27.7603 10.979ZM29.877 11.1328C29.877 11.875 30.0063 12.4438 30.2651 12.8394C30.5239 13.2349 30.8999 13.4326 31.3931 13.4326C32.0474 13.4326 32.5088 13.1567 32.7773 12.605V9.47754C32.5137 8.92578 32.0571 8.6499 31.4077 8.6499C30.3872 8.6499 29.877 9.47754 29.877 11.1328ZM40.1895 15.1465C39.0273 15.1465 38.0801 14.79 37.3477 14.0771C36.6201 13.3643 36.2563 12.4146 36.2563 11.228V11.0229C36.2563 10.2271 36.4102 9.5166 36.7178 8.8916C37.0254 8.26172 37.46 7.77832 38.0215 7.44141C38.5879 7.09961 39.2324 6.92871 39.9551 6.92871C41.0391 6.92871 41.8911 7.27051 42.5112 7.9541C43.1362 8.6377 43.4487 9.60693 43.4487 10.8618V11.7261H38.4023C38.4707 12.2437 38.6758 12.6587 39.0176 12.9712C39.3643 13.2837 39.8013 13.4399 40.3286 13.4399C41.144 13.4399 41.7812 13.1445 42.2402 12.5537L43.2803 13.7183C42.9629 14.1675 42.5332 14.519 41.9912 14.7729C41.4492 15.022 40.8486 15.1465 40.1895 15.1465ZM39.9478 8.64258C39.5278 8.64258 39.186 8.78418 38.9224 9.06738C38.6636 9.35059 38.4976 9.75586 38.4243 10.2832H41.3687V10.1147C41.3589 9.646 41.2319 9.28467 40.9878 9.03076C40.7437 8.77197 40.397 8.64258 39.9478 8.64258ZM55.2847 12.1216L56.3247 7.0752H58.3682L56.3467 15H54.5742L53.0728 10.0122L51.5713 15H49.8062L47.7847 7.0752H49.8281L50.8608 12.1143L52.311 7.0752H53.8418L55.2847 12.1216ZM61.6567 15H59.5327V7.0752H61.6567V15ZM59.4082 5.02441C59.4082 4.70703 59.5132 4.4458 59.7231 4.24072C59.938 4.03564 60.2285 3.93311 60.5947 3.93311C60.9561 3.93311 61.2441 4.03564 61.459 4.24072C61.6738 4.4458 61.7812 4.70703 61.7812 5.02441C61.7812 5.34668 61.6714 5.61035 61.4517 5.81543C61.2368 6.02051 60.9512 6.12305 60.5947 6.12305C60.2383 6.12305 59.9502 6.02051 59.7305 5.81543C59.5156 5.61035 59.4082 5.34668 59.4082 5.02441ZM65.9414 5.12695V7.0752H67.2964V8.62793H65.9414V12.583C65.9414 12.876 65.9976 13.0859 66.1099 13.2129C66.2222 13.3398 66.437 13.4033 66.7544 13.4033C66.9888 13.4033 67.1963 13.3862 67.377 13.3521V14.9561C66.9619 15.083 66.5347 15.1465 66.0952 15.1465C64.6108 15.1465 63.854 14.397 63.8247 12.8979V8.62793H62.6675V7.0752H63.8247V5.12695H65.9414ZM70.541 7.93945C71.1025 7.26562 71.8081 6.92871 72.6577 6.92871C74.3765 6.92871 75.248 7.92725 75.2725 9.92432V15H73.1558V9.98291C73.1558 9.52881 73.0581 9.19434 72.8628 8.97949C72.6675 8.75977 72.3428 8.6499 71.8887 8.6499C71.2686 8.6499 70.8193 8.88916 70.541 9.36768V15H68.4243V3.75H70.541V7.93945ZM86.2734 12.2021C86.2734 11.7871 86.127 11.4697 85.834 11.25C85.541 11.0254 85.0137 10.791 84.252 10.5469C83.4902 10.2979 82.8872 10.0537 82.4429 9.81445C81.2319 9.16016 80.6265 8.27881 80.6265 7.17041C80.6265 6.59424 80.7876 6.08154 81.1099 5.63232C81.437 5.17822 81.9033 4.82422 82.5088 4.57031C83.1191 4.31641 83.8027 4.18945 84.5596 4.18945C85.3213 4.18945 86 4.32861 86.5957 4.60693C87.1914 4.88037 87.6528 5.26855 87.98 5.77148C88.312 6.27441 88.478 6.8457 88.478 7.48535H86.2808C86.2808 6.99707 86.127 6.61865 85.8193 6.3501C85.5117 6.07666 85.0796 5.93994 84.5229 5.93994C83.9858 5.93994 83.5684 6.05469 83.2705 6.28418C82.9727 6.50879 82.8237 6.80664 82.8237 7.17773C82.8237 7.52441 82.9971 7.81494 83.3438 8.04932C83.6953 8.28369 84.2104 8.50342 84.8892 8.7085C86.1392 9.08447 87.0498 9.55078 87.6211 10.1074C88.1924 10.6641 88.478 11.3574 88.478 12.1875C88.478 13.1104 88.1289 13.8354 87.4307 14.3628C86.7324 14.8853 85.7925 15.1465 84.6108 15.1465C83.7905 15.1465 83.0435 14.9976 82.3696 14.6997C81.6958 14.397 81.1807 13.9844 80.8242 13.4619C80.4727 12.9395 80.2969 12.334 80.2969 11.6455H82.5015C82.5015 12.8223 83.2046 13.4106 84.6108 13.4106C85.1333 13.4106 85.541 13.3057 85.834 13.0957C86.127 12.8809 86.2734 12.583 86.2734 12.2021ZM92.0669 15H89.9429V3.75H92.0669V15ZM96.0513 15H93.9272V7.0752H96.0513V15ZM93.8027 5.02441C93.8027 4.70703 93.9077 4.4458 94.1177 4.24072C94.3325 4.03564 94.623 3.93311 94.9893 3.93311C95.3506 3.93311 95.6387 4.03564 95.8535 4.24072C96.0684 4.4458 96.1758 4.70703 96.1758 5.02441C96.1758 5.34668 96.0659 5.61035 95.8462 5.81543C95.6313 6.02051 95.3457 6.12305 94.9893 6.12305C94.6328 6.12305 94.3447 6.02051 94.125 5.81543C93.9102 5.61035 93.8027 5.34668 93.8027 5.02441ZM97.4722 10.979C97.4722 9.74365 97.748 8.75977 98.2998 8.02734C98.8564 7.29492 99.6157 6.92871 100.578 6.92871C101.349 6.92871 101.986 7.2168 102.489 7.79297V3.75H104.613V15H102.702L102.599 14.1577C102.072 14.8169 101.393 15.1465 100.563 15.1465C99.6304 15.1465 98.8809 14.7803 98.3145 14.0479C97.7529 13.3105 97.4722 12.2876 97.4722 10.979ZM99.5889 11.1328C99.5889 11.875 99.7183 12.4438 99.9771 12.8394C100.236 13.2349 100.612 13.4326 101.105 13.4326C101.759 13.4326 102.221 13.1567 102.489 12.605V9.47754C102.226 8.92578 101.769 8.6499 101.12 8.6499C100.099 8.6499 99.5889 9.47754 99.5889 11.1328ZM109.901 15.1465C108.739 15.1465 107.792 14.79 107.06 14.0771C106.332 13.3643 105.968 12.4146 105.968 11.228V11.0229C105.968 10.2271 106.122 9.5166 106.43 8.8916C106.737 8.26172 107.172 7.77832 107.733 7.44141C108.3 7.09961 108.944 6.92871 109.667 6.92871C110.751 6.92871 111.603 7.27051 112.223 7.9541C112.848 8.6377 113.161 9.60693 113.161 10.8618V11.7261H108.114C108.183 12.2437 108.388 12.6587 108.729 12.9712C109.076 13.2837 109.513 13.4399 110.041 13.4399C110.856 13.4399 111.493 13.1445 111.952 12.5537L112.992 13.7183C112.675 14.1675 112.245 14.519 111.703 14.7729C111.161 15.022 110.561 15.1465 109.901 15.1465ZM109.66 8.64258C109.24 8.64258 108.898 8.78418 108.634 9.06738C108.375 9.35059 108.209 9.75586 108.136 10.2832H111.081V10.1147C111.071 9.646 110.944 9.28467 110.7 9.03076C110.456 8.77197 110.109 8.64258 109.66 8.64258ZM118.661 12.8101C118.661 12.5513 118.532 12.3486 118.273 12.2021C118.019 12.0508 117.609 11.9165 117.042 11.7993C115.158 11.4038 114.215 10.603 114.215 9.39697C114.215 8.69385 114.506 8.10791 115.087 7.63916C115.673 7.16553 116.437 6.92871 117.379 6.92871C118.385 6.92871 119.188 7.16553 119.789 7.63916C120.395 8.11279 120.697 8.72803 120.697 9.48486H118.581C118.581 9.18213 118.483 8.93311 118.288 8.73779C118.092 8.5376 117.787 8.4375 117.372 8.4375C117.016 8.4375 116.74 8.51807 116.544 8.6792C116.349 8.84033 116.251 9.04541 116.251 9.29443C116.251 9.52881 116.361 9.71924 116.581 9.86572C116.806 10.0073 117.182 10.1318 117.709 10.2393C118.236 10.3418 118.681 10.459 119.042 10.5908C120.16 11.001 120.719 11.7114 120.719 12.7222C120.719 13.4448 120.409 14.0308 119.789 14.48C119.169 14.9243 118.368 15.1465 117.387 15.1465C116.723 15.1465 116.132 15.0293 115.614 14.7949C115.102 14.5557 114.699 14.231 114.406 13.8208C114.113 13.4058 113.966 12.959 113.966 12.4805H115.973C115.993 12.8564 116.132 13.1445 116.391 13.3447C116.649 13.5449 116.996 13.645 117.431 13.645C117.836 13.645 118.141 13.5693 118.346 13.418C118.556 13.2617 118.661 13.0591 118.661 12.8101ZM132.965 11.1108C132.965 12.3804 132.694 13.3716 132.152 14.0845C131.61 14.7925 130.854 15.1465 129.882 15.1465C129.022 15.1465 128.336 14.8169 127.824 14.1577L127.729 15H125.824V3.75H127.941V7.78564C128.429 7.21436 129.071 6.92871 129.867 6.92871C130.834 6.92871 131.591 7.28516 132.138 7.99805C132.689 8.70605 132.965 9.70459 132.965 10.9937V11.1108ZM130.849 10.957C130.849 10.1562 130.722 9.57275 130.468 9.20654C130.214 8.83545 129.835 8.6499 129.333 8.6499C128.659 8.6499 128.195 8.92578 127.941 9.47754V12.605C128.2 13.1616 128.668 13.4399 129.347 13.4399C130.031 13.4399 130.48 13.103 130.695 12.4292C130.797 12.1069 130.849 11.6162 130.849 10.957ZM137.147 12.0044L138.612 7.0752H140.883L137.697 16.2305L137.521 16.6479C137.047 17.6831 136.266 18.2007 135.177 18.2007C134.87 18.2007 134.557 18.1543 134.24 18.0615V16.4575L134.562 16.4648C134.962 16.4648 135.26 16.4038 135.456 16.2817C135.656 16.1597 135.812 15.957 135.924 15.6738L136.173 15.022L133.397 7.0752H135.675L137.147 12.0044Z" fill="#202020"/>
<defs>
<clipPath id="clip0_1_547">
<rect width="23" height="23" fill="white" transform="translate(152)"/>
</clipPath>
</defs>
</svg>
