<svg width="1180" height="69" viewBox="0 0 1180 69" fill="none" xmlns="http://www.w3.org/2000/svg">
<path d="M133 3.93762V45.0626H133.256L149.54 3.93762H133Z" fill="#C9CCCE"/>
<path d="M179 3.93762H162.21L179 45.0626V3.93762Z" fill="#C9CCCE"/>
<path d="M160.221 45.0626H167.178L155.977 18.5164L148.577 37.0462H156.845L160.221 45.0626Z" fill="#C9CCCE"/>
<g clip-path="url(#clip0_1_72)">
<path d="M372.174 15.9424C371.911 16.4648 371.912 16.9698 371.912 17.4922V24.0222C371.912 24.0222 375.427 19.4773 376.231 18.3977C376.843 17.5966 377.595 16.4648 377.595 15.9424H389.068C388.281 16.4648 387.406 17.4051 386.689 18.2757C386.06 19.0419 382.492 23.3779 382.492 23.3779C382.492 23.3779 387.791 31.4055 388.473 32.4329C388.858 32.9901 389.278 33.5125 389.767 33.9827H376.563C376.563 33.4602 376.056 32.398 375.497 31.5622C374.937 30.7263 371.912 26.1466 371.912 26.1466V32.4329C371.912 32.9553 371.911 33.4602 372.174 33.9827H361.174C361.436 33.4602 361.436 32.9553 361.436 32.4329V17.4922C361.436 16.9698 361.436 16.4648 361.174 15.9424H372.174ZM412.904 15.9424H391.673C391.936 16.4648 391.936 16.9698 391.936 17.4922V32.4329C391.936 32.9553 391.936 33.4602 391.673 33.9827H412.904V28.985C412.38 29.2462 411.872 29.2462 411.348 29.2462H402.411V26.878H410.998V23.0644H402.411V20.6788H411.348C411.872 20.6788 412.38 20.6788 412.904 20.9226V15.9424ZM442.32 32.4329C442.495 33.0075 442.792 33.5299 443.177 33.9827H431.669C431.722 33.4602 431.53 32.9553 431.32 32.4329C431.32 32.4329 431.145 32.0149 430.9 31.4055L430.795 31.1443H424.167L424.062 31.4229C424.062 31.4229 423.87 31.9279 423.695 32.4503C423.52 32.9727 423.327 33.4777 423.397 34.0001H414.321C414.688 33.5473 414.968 33.0249 415.143 32.4503L420.582 17.5096C420.774 16.9872 420.966 16.4822 420.897 15.9598H436.234C436.094 16.4822 436.374 16.9872 436.566 17.5096C437.021 18.6414 441.935 31.4229 442.32 32.4329ZM429.343 27.3307L427.734 23.1515C427.595 22.7684 427.472 22.3679 427.385 21.9674C427.315 22.3679 427.21 22.7684 427.07 23.1515C427.018 23.3256 426.336 25.1541 425.549 27.3307H429.343ZM355.7 17.4922C355.7 16.9698 355.7 16.4648 355.962 15.9424H344C344.262 16.4648 344.262 16.9698 344.262 17.4922V32.4329C344.262 32.9553 344.262 33.4602 344 33.9827H355.962C355.7 33.4602 355.7 32.9553 355.7 32.4329V17.4922ZM438.647 17.3703C438.612 18.6763 439.644 19.7733 440.973 19.8081C442.285 19.843 443.387 18.8156 443.422 17.4922C443.422 17.4573 443.422 17.4051 443.422 17.3703C443.439 16.0817 442.425 15.0194 441.131 15.002C441.096 15.002 441.078 15.002 441.043 15.002C439.767 14.9498 438.7 15.9424 438.665 17.2135C438.63 17.2658 438.63 17.318 438.647 17.3703ZM442.932 17.3703C442.967 18.4151 442.128 19.3031 441.078 19.3206C440.029 19.3554 439.137 18.5195 439.119 17.4747C439.119 17.4399 439.119 17.4051 439.119 17.3528C439.084 16.3429 439.872 15.4896 440.886 15.4548C440.938 15.4548 440.973 15.4548 441.026 15.4548C442.058 15.4374 442.914 16.2558 442.932 17.2832C442.932 17.318 442.932 17.3528 442.932 17.3703ZM442.198 18.7982H441.725L441.166 17.7882H440.553V18.7982H440.134V15.9424H441.201C441.708 15.9598 442.092 16.3603 442.092 16.8653C442.092 17.2135 441.9 17.527 441.585 17.7011L442.198 18.7982ZM441.131 17.3703C441.41 17.3877 441.655 17.1787 441.655 16.9001C441.655 16.6215 441.463 16.3777 441.183 16.3777C441.166 16.3777 441.148 16.3777 441.131 16.3777H440.553V17.3877H441.131" fill="#C9CCCE"/>
</g>
<g clip-path="url(#clip1_1_72)">
<path d="M630.25 24.3675C630.25 23.0128 629.183 21.8937 627.79 21.8937C626.426 21.8937 625.33 23.0128 625.33 24.3675C625.33 25.7222 626.397 26.8118 627.79 26.8118C629.183 26.8118 630.25 25.7222 630.25 24.3675ZM634.519 24.3969C634.519 27.9014 631.525 30.6991 627.82 30.6991C624.085 30.6991 621.12 27.9014 621.12 24.3969C621.12 20.863 624.114 18.0359 627.82 18.0359C631.525 18.0064 634.519 20.863 634.519 24.3969ZM647.889 21.8348C647.889 19.4789 646.228 17.4174 643.768 17.4174H640.359V26.3406H643.768C646.228 26.3406 647.889 24.1908 647.889 21.8348ZM652.483 21.8348C652.483 26.8707 648.896 30.3163 643.857 30.3163H636.565C636.209 30.3163 635.942 30.0512 635.942 29.7273V14.0013C635.942 13.6773 636.209 13.4123 636.565 13.4123H643.857C648.926 13.4417 652.483 16.799 652.483 21.8348ZM659.627 26.8118C660.991 26.8118 662.088 25.6927 662.088 24.338C662.088 22.9834 661.021 21.8643 659.627 21.8643C658.264 21.8643 657.167 22.9834 657.167 24.338C657.167 25.7222 658.264 26.8118 659.627 26.8118ZM658.975 18.0064C660.428 18.0064 661.584 18.5365 662.088 19.2727V18.9193C662.088 18.5954 662.355 18.3598 662.651 18.3598H665.734C666.06 18.3598 666.297 18.5954 666.297 18.9193V29.7567C666.297 30.0807 666.06 30.3163 665.734 30.3163H662.681C662.355 30.3163 662.118 30.0807 662.118 29.7567V29.4033C661.613 30.1396 660.428 30.6697 658.975 30.6697C655.892 30.6697 652.928 28.2254 652.928 24.3086C652.928 20.3918 655.892 18.0064 658.975 18.0064ZM673.56 26.8118C674.924 26.8118 676.02 25.6927 676.02 24.338C676.02 22.9834 674.953 21.8643 673.56 21.8643C672.196 21.8643 671.1 22.9834 671.1 24.338C671.1 25.7222 672.196 26.8118 673.56 26.8118ZM672.819 18.0064C674.301 18.0064 675.457 18.5659 675.991 19.2138V14.0013C675.991 13.6773 676.258 13.4417 676.554 13.4417H679.667C679.993 13.4417 680.23 13.6773 680.23 14.0013V29.7862C680.23 30.1101 679.993 30.3457 679.667 30.3457H676.613C676.287 30.3457 676.05 30.1101 676.05 29.7862V29.4328C675.428 30.169 674.36 30.6991 672.908 30.6991C669.825 30.6991 666.86 28.2548 666.86 24.338C666.86 20.4213 669.795 18.0064 672.819 18.0064ZM687.493 26.8118C688.856 26.8118 689.953 25.6927 689.953 24.338C689.953 22.9834 688.886 21.8643 687.493 21.8643C686.129 21.8643 685.032 22.9834 685.032 24.338C685.062 25.7222 686.129 26.8118 687.493 26.8118ZM686.781 18.0064C688.263 18.0064 689.419 18.5659 689.953 19.2138V14.0013C689.953 13.6773 690.22 13.4417 690.516 13.4417H693.599C693.925 13.4417 694.162 13.6773 694.162 14.0013V29.7862C694.162 30.1101 693.925 30.3457 693.599 30.3457H690.546C690.22 30.3457 689.983 30.1101 689.983 29.7862V29.4328C689.36 30.169 688.293 30.6991 686.84 30.6991C683.757 30.6991 680.793 28.2548 680.793 24.338C680.793 20.4213 683.728 18.0064 686.781 18.0064ZM704.419 32.0538C703.648 34.5864 701.87 36 699.083 36C697.571 36 696.089 35.4994 695.141 34.6748C694.992 34.5275 694.904 34.3508 694.904 34.1741C694.904 34.0269 694.963 33.8502 695.111 33.6735L696.267 31.936C696.445 31.7004 696.712 31.6709 696.771 31.6709C697.038 31.6709 697.156 31.7298 697.394 31.9065C697.749 32.1421 698.253 32.4366 698.816 32.4366C699.291 32.4366 699.913 32.2305 700.15 31.5237L700.536 30.3163H698.639C698.253 30.3163 698.016 30.0512 697.897 29.7273L694.785 19.3316C694.726 19.0666 694.696 18.9193 694.696 18.831C694.696 18.5954 694.874 18.3892 695.2 18.3892H698.876C699.202 18.3892 699.38 18.6837 699.469 18.9782L701.514 26.4584H701.662L703.293 18.9782C703.352 18.6837 703.559 18.3892 703.886 18.3892H707.621C707.976 18.3892 708.125 18.5954 708.125 18.831C708.125 18.9193 708.095 19.0666 708.036 19.3316L704.419 32.0538ZM616.733 27.9898C615.251 30.0218 612.82 30.6991 610.656 30.6991C605.676 30.6991 602 27.0179 602 21.8937C602.03 16.9757 606.002 13.0589 611.19 13.0589C615.043 13.0589 618.126 14.6786 619.519 17.7708C619.697 18.1242 619.816 18.7132 618.778 18.8899L616.051 19.3611C615.429 19.4789 615.073 19.0666 614.954 18.8899C614.154 17.8003 612.85 17.064 611.278 17.064C608.551 17.064 606.624 19.1255 606.624 21.8643C606.624 24.8976 608.818 26.6645 611.219 26.6645C612.82 26.6645 614.124 26.0755 614.984 24.9565H612.583C612.227 24.9565 611.96 24.6914 611.96 24.3675V22.0999C611.96 21.7759 612.227 21.5109 612.583 21.5109H619.905C620.26 21.5109 620.527 21.7759 620.527 22.0999V29.7273C620.527 30.0512 620.26 30.3163 619.905 30.3163H617.356C617 30.3163 616.733 30.0512 616.733 29.7273V27.9898ZM708.658 13C707.354 13 706.287 14.0602 706.287 15.356C706.287 16.6517 707.354 17.7119 708.658 17.7119C709.962 17.7119 711.03 16.6517 711.03 15.356C711.03 14.0602 709.962 13 708.658 13ZM708.658 17.2407C707.621 17.2407 706.761 16.3867 706.761 15.356C706.761 14.3252 707.621 13.4712 708.658 13.4712C709.696 13.4712 710.555 14.3252 710.555 15.356C710.555 16.3867 709.696 17.2407 708.658 17.2407Z" fill="#C9CCCE"/>
<path d="M709.133 14.9142C709.133 14.7965 709.103 14.7081 709.014 14.6787C708.955 14.6198 708.836 14.5609 708.747 14.5609H708.332V15.2382H708.747C708.866 15.2382 708.955 15.2087 709.014 15.1204C709.073 15.0615 709.133 15.0026 709.133 14.9142ZM708.214 16.6518H707.769C707.739 16.6518 707.739 16.6518 707.71 16.6223C707.71 16.5929 707.68 16.5929 707.68 16.5634V14.1191C707.68 14.0897 707.68 14.0897 707.71 14.0602C707.739 14.0602 707.739 14.0308 707.769 14.0308H708.747C709.073 14.0308 709.31 14.0897 709.488 14.2664C709.666 14.4431 709.755 14.6492 709.755 14.8848C709.755 15.0615 709.725 15.2087 709.607 15.3265C709.488 15.4738 709.399 15.5621 709.251 15.6505L709.814 16.5045C709.844 16.534 709.844 16.5634 709.814 16.6223C709.814 16.6518 709.785 16.6518 709.755 16.6518H709.31C709.281 16.6518 709.251 16.6518 709.192 16.6223C709.162 16.6223 709.162 16.5929 709.133 16.5634L708.658 15.7683H708.302V16.534C708.302 16.5634 708.302 16.5634 708.273 16.5929C708.243 16.6223 708.243 16.6518 708.214 16.6518Z" fill="#C9CCCE"/>
</g>
<path d="M924.859 17.7194C923.708 18.036 913.186 26.3697 912.492 28.4145C912.339 29.1207 912.507 35.9697 912.66 36.9967C913.354 37.154 918.359 37.0171 919.278 37.1738L919.168 39.291C918.268 39.2197 911.908 39.2365 908.278 39.2365C906.434 39.2365 900.505 39.4447 898.684 39.3906L899.028 37.3755C900.028 37.2999 904.162 37.5635 905.068 36.577C905.519 36.0864 905.377 29.5775 905.224 28.477C904.842 27.2999 895.62 15.4997 893.211 13.5663H887V10.5999H907.946V10.8045C907.964 10.8045 907.999 10.8079 908.017 10.8116L907.946 11.3129V13.5662H901.63C904.445 17.7704 908.481 22.8462 910.202 25.2853L918.639 17.4772H913.624L912.918 14.5139H931.287L931.152 14.7252C931.166 14.7252 931.196 14.7285 931.216 14.7285L929.904 16.6722C929.892 16.6722 929.872 16.6756 929.862 16.6788L929.333 17.4772H925.944C925.506 17.5759 925.12 17.664 924.859 17.7194ZM930.852 36.2979L929.231 36.2162L927.421 35.9906L927.437 39.1584L928.863 39.284L930.402 39.4001L930.852 36.2979ZM934 21.1556C933.453 21.1359 928.477 20.6549 927.83 20.5241L927.907 33.9067L930.723 34.139L934 21.1556Z" fill="#C9CCCE"/>
<g clip-path="url(#clip2_1_72)">
<path d="M1101 15.2421H1108.54L1114.87 26.2215C1114.87 26.2215 1114.87 18.2709 1114.87 17.6513C1114.87 16.6876 1113.67 15.4314 1113.25 15.2421C1113.76 15.2421 1118.17 15.2421 1118.47 15.2421C1118.15 15.3281 1117.12 16.6016 1117.12 17.6513C1117.12 18.1676 1117.12 29.6977 1117.12 30.2484C1117.12 31.0228 1118.22 32.0898 1118.74 32.5028H1111.47L1105.04 21.4718C1105.04 21.4718 1105.04 29.6977 1105.04 30.1452C1105.04 31.0056 1105.86 31.8316 1106.72 32.5372H1101.17C1101.96 32.193 1102.72 31.1089 1102.78 30.2484C1102.85 29.388 1102.78 18.2881 1102.78 17.8062C1102.78 16.7565 1101.79 15.896 1101 15.2421Z" fill="#C9CCCE"/>
<path d="M1169.97 32.5028H1180C1179.44 32.3651 1178.82 31.694 1178.49 30.7991C1178.15 29.9042 1172.83 15.2421 1172.83 15.2421H1169.34C1167.91 15.554 1165.95 14.9862 1164.71 15.8708C1164.71 15.9029 1165.53 17.8269 1165.53 17.8579C1165.36 18.8904 1162.38 29.9432 1162.19 30.4893C1161.94 31.2465 1160.65 32.0898 1160.12 32.5372H1165.53C1164.99 31.9177 1164.55 31.3154 1164.65 30.627C1164.75 29.9386 1165.05 28.5619 1165.05 28.5619H1170.64C1170.89 29.2503 1171.08 29.8687 1171.18 30.4549C1171.3 31.1605 1170.59 31.9521 1169.97 32.5028ZM1165.56 26.3591L1167.44 20.0606L1169.94 26.3591H1165.56ZM1164.71 15.8708C1164.99 15.662 1169.07 15.452 1169.34 15.2421H1164.08C1164.22 15.3797 1164.47 15.5966 1164.71 15.8708Z" fill="#C9CCCE"/>
<path d="M1126.35 30.627C1126.45 29.9386 1126.75 28.5619 1126.75 28.5619H1132.34C1132.59 29.2503 1132.78 29.8687 1132.88 30.4549C1132.99 31.1605 1132.29 31.9521 1131.66 32.5028H1140.5C1140.68 32.3766 1140.86 32.2504 1141.05 32.1253C1140.7 31.8156 1140.39 31.3509 1140.18 30.7991C1139.84 29.9042 1134.53 15.2421 1134.53 15.2421H1125.77C1126.19 15.6379 1127.41 16.7048 1127.22 17.8579C1127.06 18.8904 1124.07 29.9432 1123.89 30.4893C1123.64 31.2465 1122.34 32.0898 1121.82 32.5372H1127.22C1126.68 31.9177 1126.24 31.3154 1126.35 30.627ZM1129.14 20.0606L1131.63 26.3591H1127.25L1129.14 20.0606Z" fill="#C9CCCE"/>
<path d="M1156.85 23.8099C1155.2 24.932 1153.47 26.1033 1151.64 27.3263C1152.46 27.7336 1153.11 28.2453 1153.17 28.9061C1153.29 30.1475 1150.85 30.7475 1148.65 30.4893C1148.21 30.4377 1147.78 30.3719 1147.37 30.2136C1146.27 29.7926 1145.84 29.3967 1145.45 29.1161C1144.12 29.6272 1144.92 31.7731 1144.25 32.2183V34C1144.69 33.1223 1145.65 32.3365 1146.39 32.2963C1146.71 32.2791 1147.82 33.3288 1152.4 33.0707C1154.62 32.9457 1158.91 30.5238 1158.85 27.7359C1158.81 26.0884 1157.96 24.8035 1156.85 23.8099ZM1144.25 28.1145L1144.25 32.2183C1144.66 31.9418 1145.06 29.3811 1145.45 29.1161C1144.83 28.6778 1144.4 28.2682 1144.25 28.1145ZM1156.85 23.8099C1155.87 23.0792 1154.43 22.1865 1154.01 21.9869C1151.86 20.9543 1149.61 20.765 1149.13 19.3711C1148.8 18.3879 1149.74 17.4781 1152.03 17.5125C1154.32 17.547 1156.44 18.9409 1157.01 19.4399V15C1156.84 15.1721 1156.1 16.0383 1155.43 15.8949C1154.13 15.6195 1151.93 15.2604 1149.4 15.2753C1146.51 15.2926 1144.02 17.5802 1143.93 20.4725C1143.82 24.5166 1146.98 25.618 1148.76 26.2548C1148.95 26.3202 1151.41 27.2517 1151.64 27.3263C1153.35 26.1882 1153.94 26.1849 1154.73 25.718C1155.26 25.4047 1156.04 24.3595 1156.85 23.8099Z" fill="#C9CCCE"/>
</g>
<g clip-path="url(#clip3_1_72)">
<path fill-rule="evenodd" clip-rule="evenodd" d="M260.859 1.00006H239V23.3341H260.859V1.00006ZM285 1.00006H263.141V23.3341H285V1.00006ZM239 25.666H260.859V48H239V25.666ZM285 25.666H263.141V48H285V25.666Z" fill="#C9CCCE"/>
</g>
<g clip-path="url(#clip4_1_72)">
<path d="M827.976 30.0441C827.931 29.3393 827.834 28.6291 827.674 27.9409C827.23 26.0318 826.465 24.2531 825.47 22.5661C824.372 20.7096 823.086 18.9976 821.6 17.4383C820.826 16.628 820.02 15.8455 819.221 15.0574C818.988 14.83 818.744 14.6106 818.489 14.4109C817.394 13.5479 816.333 12.6379 815.179 11.8635C813.206 10.5344 811.226 9.19424 809.15 8.03991C807.193 6.95218 805.141 6.01158 803.065 5.16792C800.969 4.31593 798.807 3.61405 796.645 2.9425C795.248 2.50966 793.803 2.21537 792.37 1.91867C791.217 1.67996 790.055 1.49147 788.888 1.34701C787.604 1.18617 786.31 1.05003 785.015 1.01405C783.604 0.972435 782.191 1.0307 780.779 1.09165C780.391 1.1083 780.003 1.12763 779.615 1.16093C779.141 1.20255 778.67 1.26081 778.207 1.35238C776.771 1.63539 775.343 1.97667 773.932 2.36789C773.497 2.49006 772.153 2.91726 771.484 4.14382C771.34 4.4075 771.124 4.88759 771.027 5.44798C770.852 6.46644 771.545 7.44597 772.568 7.57915C772.577 7.57915 772.582 7.57915 772.588 7.58184C773.43 7.68172 774.284 7.72066 775.135 7.74563C775.426 7.75395 775.748 7.70132 776.006 7.57083C776.222 7.46262 776.433 7.22686 776.507 6.99917C776.543 6.88827 776.297 6.60794 776.122 6.51907C775.634 6.28036 775.088 6.15846 774.581 5.96405C774.425 5.90579 774.265 5.87518 774.101 5.8392C774.029 5.82255 773.979 5.7616 773.974 5.68669V5.67836C773.974 5.62009 774.004 5.56451 774.057 5.53417C774.198 5.45362 774.337 5.37333 774.487 5.34836C775.64 5.15691 776.79 4.89887 777.949 4.77106C778.234 4.73777 778.52 4.7128 778.805 4.69883C780.94 4.59895 783.086 4.58498 785.215 4.91525C786.429 5.10402 787.665 5.17061 788.857 5.44234C791.067 5.94741 793.273 6.48577 795.444 7.1404C797.143 7.6538 798.809 8.28372 800.425 9.0189C802.715 10.0623 804.997 11.1444 807.176 12.3987C809.08 13.4947 810.879 14.7906 812.656 16.0947C813.934 17.0326 815.135 18.0871 816.302 19.1665C817.086 19.8906 817.754 20.7453 818.461 21.5527C819.747 23.0234 820.757 24.6688 821.483 26.4807C822.248 28.3871 822.55 30.3599 822.131 32.3882C821.685 34.5471 820.535 36.2951 818.819 37.6548C817.474 38.7176 815.969 39.5279 814.336 40.0384C812.928 40.4795 811.487 40.8321 810.039 41.1288C808.867 41.3702 807.669 41.5726 806.477 41.6116C805.005 41.6615 803.519 41.5922 802.053 41.4534C800.589 41.3146 799.145 41.0096 797.687 40.8208C797.329 40.7736 797.293 40.632 797.299 40.3464C797.335 38.4732 797.36 36.6004 797.385 34.7302C797.415 32.552 797.44 30.3736 797.47 28.1954C797.473 28.1178 797.498 28.04 797.515 27.9374C798.26 27.9983 798.984 28.0566 799.71 28.1205C800.691 28.2011 801.684 28.2314 802.66 28.3842C804.148 28.6146 805.634 28.8893 807.106 29.2195C808.201 29.4666 809.296 29.7716 810.228 30.4571C810.94 30.9815 810.829 31.4726 810.242 31.9471C810.023 32.1219 809.757 32.2384 809.504 32.3689C809.069 32.591 808.614 32.7794 808.196 33.0294C807.686 33.3318 807.674 33.676 808.187 33.9367C809.604 34.6582 811.018 35.0884 812.567 34.1808C815.123 32.6852 815.772 29.5135 813.612 27.2938C812.493 26.1451 811.126 25.404 809.634 24.8576C808.043 24.2722 806.383 24.0056 804.731 23.6783C802.596 23.2594 800.45 23.0261 798.277 23.029C798.158 23.029 798.036 23.015 797.925 23.0097C797.883 22.3354 797.839 21.6889 797.803 21.045C797.77 20.3957 797.775 19.7465 797.712 19.0999C797.626 18.1896 797.512 17.2796 797.379 16.375C797.218 15.2873 796.547 14.4603 795.882 13.6529C795.402 13.0729 794.759 13.0369 794.382 13.8749C794.288 14.0857 794.185 14.2968 794.135 14.5188C793.847 15.7481 793.528 16.9746 793.312 18.2149C793.11 19.3858 793.021 20.5762 792.882 21.7584C792.827 22.2329 792.785 22.7103 792.708 23.1818C792.691 23.279 792.564 23.4175 792.469 23.4371C791.549 23.6176 790.62 23.7618 789.7 23.9449C787.063 24.4776 784.519 25.288 782.134 26.5422C781.167 27.05 780.236 27.6273 779.573 28.5456C778.783 29.636 778.603 30.7933 779.21 32.0086C779.883 33.3543 780.879 34.4754 781.882 35.5771C782.506 36.2596 783.174 36.8979 783.878 37.4972C784.921 38.3825 785.963 39.2871 787.097 40.0446C788.555 41.0158 790.105 41.8511 791.604 42.7554C791.729 42.8304 791.851 43.0078 791.873 43.1523C792.006 43.9737 792.075 44.8061 792.228 45.6218C792.361 46.3266 792.638 46.9925 793.198 47.47C793.966 48.1222 794.864 48.1026 795.746 47.7863C796.281 47.5948 796.885 47.4034 797.018 46.7125C797.101 46.2823 797.201 45.8495 797.204 45.4193C797.206 45.0142 797.331 44.9559 797.686 45.0587C799.879 45.697 802.13 46.0326 804.397 46.2104C805.576 46.3046 806.765 46.227 807.949 46.2297C809.698 46.2353 811.414 45.9883 813.124 45.6497C815.306 45.2169 817.407 44.5397 819.412 43.5825C820.82 42.9082 822.117 42.0646 823.306 41.038C824.473 40.0308 825.46 38.8819 826.189 37.5361C827.449 35.2054 828.142 32.7193 827.976 30.0441ZM792.392 31.1209C792.384 31.2457 792.389 31.3706 792.384 31.4954C792.328 32.708 792.287 33.9206 792.212 35.1332C792.151 36.1321 792.054 37.1312 791.965 38.1301C791.937 38.4547 791.887 38.7823 791.846 39.1346C789.49 38.205 787.274 37.0866 785.234 35.6356C783.632 34.5006 782.174 33.2077 780.921 31.6955C780.308 30.96 780.508 30.2748 781.306 29.9389C782.376 29.4867 783.504 29.1564 784.635 28.8901C785.797 28.6154 786.991 28.4599 788.178 28.2991C788.91 28.1965 789.653 28.1742 790.393 28.1216C791.1 28.069 791.807 28.019 792.558 27.9634C792.503 29.0343 792.445 30.0774 792.392 31.1209Z" fill="#C9CCCE"/>
</g>
<g clip-path="url(#clip5_1_72)">
<path d="M505 22.3636H514.593V32.3333H505V22.3636Z" fill="#C9CCCE"/>
<path d="M526.997 37.9523C526.997 40.983 527.428 42.9483 528.281 43.8547C529.008 44.6267 530.242 45.1001 531.973 45.282C532.487 45.3278 533.363 45.3477 534.601 45.3477V48H512.397V45.3477C514.179 45.3477 515.499 45.2568 516.347 45.082C518.067 44.7047 519.153 43.6681 519.6 41.9645C519.828 41.0798 519.949 39.744 519.949 37.9529V3.25569C516.178 3.36774 513.232 4.66074 511.104 7.13643C509.083 9.503 507.852 13.1321 507.406 18.0189L505 17.593L505.448 1H541.551L542 17.593L539.599 18.0189C539.15 13.1321 537.911 9.503 535.882 7.13643C533.742 4.66015 530.784 3.36774 526.998 3.25569V37.9523H526.997Z" fill="#C9CCCE"/>
<path d="M532.407 22.3636H542V32.3333H532.407V22.3636Z" fill="#C9CCCE"/>
</g>
<g clip-path="url(#clip6_1_72)">
<path fill-rule="evenodd" clip-rule="evenodd" d="M58.2294 6.96922C58.2294 6.39212 58.6784 6.00012 59.262 6.00012C59.8457 6.00012 60.2946 6.39212 60.2946 6.96922C60.2946 7.54633 59.8344 7.93832 59.262 7.93832C58.6896 7.93832 58.2294 7.54633 58.2294 6.96922ZM58.5437 6.96922C58.5437 7.36122 58.8467 7.65521 59.262 7.65521C59.6773 7.65521 59.9804 7.36122 59.9804 6.96922C59.9804 6.57723 59.6773 6.27234 59.262 6.27234C58.8467 6.27234 58.5437 6.57723 58.5437 6.96922ZM17.2624 25.2623H22.3019L29.7321 6.05457H25.0517L21.7182 14.6676L22.2907 6.05457H17.3185L9.88829 25.2623H14.5686L17.8348 16.7691L17.2624 25.2623ZM11.2014 29.6178C11.2014 29.0407 11.6504 28.6487 12.234 28.6487C12.8177 28.6487 13.2666 29.0407 13.2666 29.6178C13.2666 30.1949 12.8065 30.5869 12.234 30.5869C11.6616 30.5869 11.2014 30.1949 11.2014 29.6178ZM11.5157 29.6178C11.5157 30.0098 11.8188 30.3038 12.234 30.3038C12.6493 30.3038 12.9524 30.0098 12.9524 29.6178C12.9524 29.2258 12.6493 28.9209 12.234 28.9209C11.8188 28.9209 11.5157 29.2258 11.5157 29.6178ZM22.9079 25.2623L30.3381 6.05457H35.0185L27.5883 25.2623H22.9079ZM2.09887 40.561C-3.35593 35.9986 2.8172 26.0898 9.34949 18.6419C3.71511 29.5851 11.5045 33.6357 18.351 31.7738C18.351 31.7738 30.4475 28.5912 43.2042 25.2361L36.4552 25.2515L36.2419 17.2264L33.0992 25.2515H28.4189L35.7817 6.05457H40.5182L38.251 11.8147L43.1558 6.05457H48.0157H48.0606H57.4326L56.1755 9.25586H51.439L49.9014 13.2956H54.4021L53.0216 16.878H48.5208L46.725 21.5275H52.1798L51.6256 23.0213C62.7408 20.0985 72.3796 17.5651 72.4837 17.5421C73.0898 17.4006 73.1796 17.6946 72.697 17.9233C72.697 17.9233 22.9753 38.8732 18.4745 40.6154L18.3866 40.6496C13.8882 42.4021 7.33987 44.9531 2.09887 40.561ZM12.4141 29.6832C12.5602 29.6723 12.6725 29.607 12.6725 29.411C12.6725 29.1606 12.504 29.0952 12.2232 29.0952H11.8188V30.1405H12.0884V29.6941H12.1333L12.3804 30.1405H12.695L12.4141 29.6832ZM12.2344 29.5199H12.0771V29.2803H12.2119C12.2906 29.2803 12.3804 29.2912 12.3804 29.3892C12.3804 29.4981 12.3355 29.5199 12.2344 29.5199ZM59.4421 7.03454C59.5881 7.02366 59.7005 6.95832 59.7005 6.76233C59.7005 6.51188 59.532 6.44655 59.2511 6.44655H58.8467V7.49187H59.1163V7.04543H59.1613L59.4084 7.49187H59.7229L59.4421 7.03454ZM59.2624 6.87121H59.1051V6.63166H59.2399C59.3185 6.63166 59.4084 6.64255 59.4084 6.74055C59.4084 6.84944 59.3635 6.87121 59.2624 6.87121ZM40.7988 13.9707L41.1018 23.9775L47.8698 6.43567L40.7988 13.9707Z" fill="#C9CCCE"/>
</g>
<g clip-path="url(#clip7_1_72)">
<path d="M1004.42 29.4027L1002.78 35.5101L996.801 35.6366C995.014 32.3221 994 28.5299 994 24.5C994 20.6031 994.948 16.9283 996.628 13.6926L1001.95 14.6686L1004.28 19.9601C1003.8 21.383 1003.53 22.9105 1003.53 24.5C1003.53 26.2251 1003.84 27.8779 1004.42 29.4027Z" fill="#C9CCCE"/>
<path d="M1040.59 20.1099C1040.86 21.5315 1041 22.9996 1041 24.5C1041 26.1825 1040.82 27.8236 1040.49 29.4067C1039.34 34.7936 1036.35 39.4974 1032.21 42.8262L1032.21 42.8249L1025.51 42.4828L1024.56 36.5587C1027.3 34.9473 1029.45 32.4255 1030.58 29.4067H1018.02V20.1099H1040.59Z" fill="#C9CCCE"/>
<path d="M1032.21 42.8249L1032.21 42.8262C1028.18 46.0632 1023.07 48 1017.5 48C1008.55 48 1000.77 42.9978 996.801 35.6366L1004.42 29.4027C1006.4 34.6992 1011.51 38.4697 1017.5 38.4697C1020.07 38.4697 1022.49 37.7737 1024.56 36.5587L1032.21 42.8249Z" fill="#C9CCCE"/>
<path d="M1032.5 6.41014L1024.89 12.6428C1022.74 11.3038 1020.21 10.5303 1017.5 10.5303C1011.37 10.5303 1006.17 14.4737 1004.28 19.9601L996.629 13.6926C1000.54 6.15192 1008.42 1 1017.5 1C1023.2 1 1028.43 3.0311 1032.5 6.41014Z" fill="#C9CCCE"/>
</g>
<defs>
<clipPath id="clip0_1_72">
<rect width="101" height="19" fill="white" transform="translate(344 15)"/>
</clipPath>
<clipPath id="clip1_1_72">
<rect width="109" height="23" fill="white" transform="translate(602 13)"/>
</clipPath>
<clipPath id="clip2_1_72">
<rect width="79" height="19" fill="white" transform="translate(1101 15)"/>
</clipPath>
<clipPath id="clip3_1_72">
<rect width="46" height="47" fill="white" transform="translate(239 1)"/>
</clipPath>
<clipPath id="clip4_1_72">
<rect width="57" height="47" fill="white" transform="translate(771 1)"/>
</clipPath>
<clipPath id="clip5_1_72">
<rect width="37" height="47" fill="white" transform="translate(505 1)"/>
</clipPath>
<clipPath id="clip6_1_72">
<rect width="73" height="37" fill="white" transform="translate(0 6)"/>
</clipPath>
<clipPath id="clip7_1_72">
<rect width="47" height="47" fill="white" transform="translate(994 1)"/>
</clipPath>
</defs>
</svg>
